<svg width="22" height="22" viewBox="0 0 22 22" fill="none" xmlns="http://www.w3.org/2000/svg">
<g clip-path="url(#clip0_18_991)">
<path d="M16.3992 0.814453H4.84922C4.29141 0.814453 3.83203 1.27383 3.83203 1.83164V18.3691C3.83203 18.927 4.29141 19.3863 4.84922 19.3863H16.3664C16.9242 19.3863 17.3836 18.927 17.3836 18.3691V1.83164C17.4164 1.27383 16.957 0.814453 16.3992 0.814453ZM10.6242 2.12695C11.707 2.12695 12.593 3.01289 12.593 4.12852C12.593 5.24414 11.707 6.09727 10.6242 6.09727C9.54141 6.09727 8.62266 5.21133 8.62266 4.12852C8.62266 3.0457 9.54141 2.12695 10.6242 2.12695ZM10.6242 18.3363C9.54141 18.3363 8.62266 17.4504 8.62266 16.3676C8.62266 15.9738 8.72109 15.6129 8.95078 15.2848C9.04922 15.1207 9.27891 15.0879 9.41016 15.1863C9.57422 15.2848 9.60703 15.5145 9.50859 15.6785C9.37734 15.8754 9.31172 16.1379 9.31172 16.3676C9.31172 17.0895 9.90234 17.6473 10.6242 17.6473C11.3461 17.6473 11.9039 17.0566 11.9039 16.3676C11.9039 16.1051 11.8383 15.8754 11.707 15.6457C11.6086 15.4816 11.6414 15.2848 11.8055 15.1863C11.9695 15.0879 12.1664 15.1207 12.2977 15.2848C12.4945 15.6129 12.6258 15.9738 12.6258 16.3676C12.593 17.4504 11.707 18.3363 10.6242 18.3363ZM10.2961 15.8754V14.1691C10.2961 13.9723 10.4602 13.841 10.6242 13.841C10.8211 13.841 10.9523 14.0051 10.9523 14.1691V15.8754C10.9523 16.0723 10.7883 16.2035 10.6242 16.2035C10.4273 16.2363 10.2961 16.0723 10.2961 15.8754ZM14.5617 18.3691C14.5617 18.566 14.3977 18.6973 14.2336 18.6973C14.0695 18.6973 13.9055 18.5332 13.9055 18.3691V13.8082C13.9055 13.2504 13.4461 12.791 12.8883 12.791H8.39297C7.83516 12.791 7.37578 13.2504 7.37578 13.8082V18.3691C7.37578 18.566 7.21172 18.6973 7.04766 18.6973C6.88359 18.6973 6.71953 18.5332 6.71953 18.3691V13.8082C6.71953 12.8566 7.50703 12.102 8.42578 12.102H12.8555C13.807 12.102 14.5617 12.8895 14.5617 13.8082V18.3691ZM14.4633 6.39258C14.4633 7.34414 13.6758 8.09883 12.757 8.09883H8.39297C7.44141 8.09883 6.68672 7.31133 6.68672 6.39258V1.83164C6.68672 1.63477 6.85078 1.50352 7.01484 1.50352C7.17891 1.50352 7.34297 1.66758 7.34297 1.83164V6.39258C7.34297 6.95039 7.80234 7.40977 8.36016 7.40977H12.7898C13.3477 7.40977 13.807 6.95039 13.807 6.39258V1.83164C13.807 1.63477 13.9711 1.50352 14.1352 1.50352C14.2992 1.50352 14.4633 1.66758 14.4633 1.83164V6.39258ZM10.6242 5.4082C11.3461 5.4082 11.9039 4.81758 11.9039 4.12852C11.9039 3.40664 11.3133 2.81602 10.6242 2.81602C9.90234 2.81602 9.31172 3.40664 9.31172 4.12852C9.31172 4.85039 9.90234 5.4082 10.6242 5.4082ZM13.282 20.4363V21.4863C13.282 21.6832 13.4461 21.8145 13.6102 21.8145H14.7914C14.9883 21.8145 15.1195 21.6504 15.1195 21.4863V20.4691C15.1195 20.2723 14.9555 20.141 14.7914 20.141H13.6102C13.4461 20.1082 13.282 20.2395 13.282 20.4363ZM6.09609 20.4363V21.4863C6.09609 21.6832 6.26016 21.8145 6.42422 21.8145H7.60547C7.80234 21.8145 7.93359 21.6504 7.93359 21.4863V20.4691C7.93359 20.2723 7.76953 20.141 7.60547 20.141H6.42422C6.22734 20.1082 6.09609 20.2395 6.09609 20.4363Z" fill="#EE3338"/>
</g>
<defs>
<clipPath id="clip0_18_991">
<rect width="21" height="21" fill="white" transform="translate(0.125 0.814453)"/>
</clipPath>
</defs>
</svg>
