<svg width="39" height="39" viewBox="0 0 39 39" fill="none" xmlns="http://www.w3.org/2000/svg">
<rect x="0.525391" y="0.515625" width="37.654" height="38" rx="10" fill="#EE3338"/>
<path d="M29.3544 17.9678H25.0511C24.5729 17.9678 24.1836 18.3606 24.1836 18.8432V28.0611C24.1836 28.5437 24.5729 28.9365 25.0507 28.9365H29.354C29.8326 28.9365 30.2219 28.5437 30.2219 28.0611V18.8432C30.2219 18.3606 29.8326 17.9678 29.3544 17.9678ZM27.8066 27.7178H26.5989C26.3763 27.7178 26.1964 27.5358 26.1964 27.3115C26.1964 27.0873 26.3763 26.9053 26.5989 26.9053H27.8066C28.0292 26.9053 28.2091 27.0873 28.2091 27.3115C28.2091 27.5358 28.0292 27.7178 27.8066 27.7178Z" fill="white"/>
<path d="M28.2094 17.1553V12.5967C28.2094 12.1925 28.0472 11.7972 27.7638 11.5116C27.4764 11.2212 27.0939 11.0615 26.6878 11.0615H10.0056C9.1667 11.0615 8.48438 11.7501 8.48438 12.5967V22.5263C8.48438 22.9305 8.6466 23.3262 8.9296 23.6114C9.2134 23.8978 9.60508 24.0615 10.0056 24.0615H23.3788V18.8432C23.3788 17.9125 24.1287 17.1553 25.051 17.1553H28.2094ZM18.9507 22.6206H17.7431C17.5209 22.6206 17.3405 22.4386 17.3405 22.2143C17.3405 21.9901 17.5209 21.8081 17.7431 21.8081H18.9507C19.1729 21.8081 19.3533 21.9901 19.3533 22.2143C19.3533 22.4386 19.1729 22.6206 18.9507 22.6206Z" fill="white"/>
<path d="M22.5729 28.124H20.9627V24.874H15.7296V28.124H14.1193C13.8971 28.124 13.7168 28.306 13.7168 28.5303C13.7168 28.7545 13.8971 28.9365 14.1193 28.9365H15.7296H20.9627H22.5729C22.7955 28.9365 22.9755 28.7545 22.9755 28.5303C22.9755 28.306 22.7955 28.124 22.5729 28.124Z" fill="white"/>
</svg>
