<svg width="39" height="39" viewBox="0 0 39 39" fill="none" xmlns="http://www.w3.org/2000/svg">
<rect x="0.744141" y="0.515625" width="37.654" height="38" rx="10" fill="#EE3338"/>
<path fill-rule="evenodd" clip-rule="evenodd" d="M19.5713 16.2551C15.9142 16.2551 12.9387 19.2582 12.9387 22.9487C12.9387 23.3479 12.6183 23.6712 12.2228 23.6712C11.8278 23.6712 11.5071 23.3479 11.5071 22.9487C11.5071 18.4612 15.1247 14.8103 19.5713 14.8103C20.5274 14.8103 21.4634 14.9779 22.3532 15.3078C22.7243 15.4455 22.9143 15.8604 22.7784 16.2349C22.642 16.6094 22.2303 16.8014 21.8592 16.6637C21.1285 16.3928 20.3585 16.2551 19.5713 16.2551ZM19.5713 13.0605C14.1689 13.0605 9.77344 17.4969 9.77344 22.9487C9.77344 23.7357 9.86545 24.5191 10.0471 25.277C10.1463 25.6925 10.4977 25.9712 10.9208 25.9712H28.2224C28.6455 25.9712 28.9968 25.6925 29.0961 25.277C29.2777 24.5191 29.3695 23.7357 29.3695 22.9487C29.3695 17.4969 24.9741 13.0605 19.5713 13.0605ZM17.5524 22.9487C17.5524 24.0727 18.4583 24.9864 19.5714 24.9864C21.0456 24.9864 22.0099 23.443 21.4121 22.1131L25.274 18.2155C25.5536 17.9338 25.5536 17.4764 25.274 17.1942C24.9944 16.912 24.5411 16.912 24.2615 17.1942L20.3999 21.0914C19.0723 20.4862 17.5524 21.4685 17.5524 22.9487Z" fill="white"/>
</svg>
