<svg width="38" height="39" viewBox="0 0 38 39" fill="none" xmlns="http://www.w3.org/2000/svg">
<rect x="0.3125" y="0.515625" width="37.654" height="38" rx="10" fill="#EE3338"/>
<g clip-path="url(#clip0_18_1025)">
<path d="M25.2872 27.1523H12.99C11.4231 27.1528 10.1528 28.4348 10.1523 30.0161H28.1249C28.1249 28.4343 26.8547 27.1523 25.2872 27.1523Z" fill="white"/>
<path d="M19.1402 13.7881C15.8289 13.7881 13.4648 16.1743 13.4648 19.6793V26.1544H24.8156V19.6793C24.8156 16.1743 22.4531 13.7881 19.1402 13.7881ZM22.9258 20.9692C22.6529 20.9692 22.4314 20.7457 22.4314 20.4702C22.4314 18.6798 21.5601 17.0366 20.4041 16.6484C20.1445 16.561 20.0041 16.2786 20.0906 16.0166C20.1771 15.7547 20.457 15.6129 20.7166 15.7003C22.283 16.2277 23.4203 18.2337 23.4203 20.4702C23.4203 20.7457 23.1988 20.9692 22.9258 20.9692Z" fill="white"/>
<path d="M11.5724 20.0146H8.73469C8.46175 20.0146 8.24023 19.7911 8.24023 19.5156C8.24023 19.2402 8.46175 19.0166 8.73469 19.0166H11.5724C11.8453 19.0166 12.0669 19.2402 12.0669 19.5156C12.0669 19.7911 11.8453 20.0146 11.5724 20.0146Z" fill="white"/>
<path d="M13.4252 14.4903C13.2942 14.4903 13.1681 14.4379 13.0756 14.3441L11.1838 12.4344C10.9939 12.2363 10.9994 11.9205 11.1962 11.7288C11.388 11.5422 11.6916 11.5422 11.883 11.7288L13.7748 13.6385C13.9676 13.8336 13.9676 14.1495 13.7748 14.3441C13.6818 14.4379 13.5562 14.4903 13.4252 14.4903Z" fill="white"/>
<path d="M19.1409 12.3774C18.868 12.3774 18.6465 12.1538 18.6465 11.8784V9.01463C18.6465 8.73918 18.868 8.51562 19.1409 8.51562C19.4139 8.51562 19.6354 8.73918 19.6354 9.01463V11.8784C19.6354 12.1538 19.4139 12.3774 19.1409 12.3774Z" fill="white"/>
<path d="M24.9613 14.382C24.6883 14.382 24.4668 14.1584 24.4668 13.883C24.4668 13.7507 24.5187 13.624 24.6117 13.5302L26.5035 11.621C26.6963 11.4259 27.0098 11.4259 27.2031 11.6205C27.3965 11.8151 27.3965 12.1315 27.2031 12.3266L25.3108 14.2358C25.2184 14.3296 25.0923 14.382 24.9613 14.382Z" fill="white"/>
<path d="M29.5451 20.0146H26.7073C26.4344 20.0146 26.2129 19.7911 26.2129 19.5156C26.2129 19.2402 26.4344 19.0166 26.7073 19.0166H29.5451C29.818 19.0166 30.0395 19.2402 30.0395 19.5156C30.0395 19.7911 29.818 20.0146 29.5451 20.0146Z" fill="white"/>
</g>
<defs>
<clipPath id="clip0_18_1025">
<rect width="21.7997" height="22" fill="white" transform="translate(8.24023 8.51562)"/>
</clipPath>
</defs>
</svg>
