<svg width="24" height="24" viewBox="0 0 24 24" fill="none" xmlns="http://www.w3.org/2000/svg">
<path d="M21.452 20.25C19.3686 20.25 17.3103 19.796 15.277 18.888C13.2436 17.98 11.3936 16.6923 9.72695 15.025C8.06029 13.3577 6.77295 11.5077 5.86495 9.475C4.95695 7.44233 4.50262 5.384 4.50195 3.3C4.50195 3 4.60195 2.75 4.80195 2.55C5.00195 2.35 5.25195 2.25 5.55195 2.25H9.60195C9.83529 2.25 10.0436 2.32933 10.227 2.488C10.4103 2.64667 10.5186 2.834 10.552 3.05L11.202 6.55C11.2353 6.81667 11.227 7.04167 11.177 7.225C11.127 7.40833 11.0353 7.56667 10.902 7.7L8.47695 10.15C8.81029 10.7667 9.20595 11.3623 9.66395 11.937C10.122 12.5117 10.6263 13.066 11.177 13.6C11.6936 14.1167 12.2353 14.596 12.802 15.038C13.3686 15.48 13.9686 15.884 14.602 16.25L16.952 13.9C17.102 13.75 17.298 13.6377 17.54 13.563C17.782 13.4883 18.0193 13.4673 18.252 13.5L21.702 14.2C21.9353 14.2667 22.127 14.3877 22.277 14.563C22.427 14.7383 22.502 14.934 22.502 15.15V19.2C22.502 19.5 22.402 19.75 22.202 19.95C22.002 20.15 21.752 20.25 21.452 20.25ZM7.52695 8.25L9.17695 6.6L8.75195 4.25H6.52695C6.61029 4.93333 6.72695 5.60833 6.87695 6.275C7.02695 6.94167 7.24362 7.6 7.52695 8.25ZM16.477 17.2C17.127 17.4833 17.7896 17.7083 18.465 17.875C19.1403 18.0417 19.8193 18.15 20.502 18.2V16L18.152 15.525L16.477 17.2Z" fill="white"/>
</svg>
