<svg width="24" height="24" viewBox="0 0 24 24" fill="none" xmlns="http://www.w3.org/2000/svg">
<path d="M9 3.05469C8.33726 3.05469 7.8 3.59195 7.8 4.25469C7.8 4.91743 8.33726 5.45469 9 5.45469H11.4C12.0627 5.45469 12.6 4.91743 12.6 4.25469C12.6 3.59195 12.0627 3.05469 11.4 3.05469H9Z" fill="white"/>
<path fill-rule="evenodd" clip-rule="evenodd" d="M3 6.65469C3 5.3292 4.07452 4.25469 5.4 4.25469C5.4 6.24291 7.01178 7.85469 9 7.85469H11.4C13.3882 7.85469 15 6.24291 15 4.25469C16.3255 4.25469 17.4 5.3292 17.4 6.65469V19.8547C17.4 21.1802 16.3255 22.2547 15 22.2547H5.4C4.07452 22.2547 3 21.1802 3 19.8547V6.65469ZM6.6 11.4547C5.93726 11.4547 5.4 11.9919 5.4 12.6547C5.4 13.3174 5.93726 13.8547 6.6 13.8547H6.612C7.27474 13.8547 7.812 13.3174 7.812 12.6547C7.812 11.9919 7.27474 11.4547 6.612 11.4547H6.6ZM10.2 11.4547C9.53726 11.4547 9 11.9919 9 12.6547C9 13.3174 9.53726 13.8547 10.2 13.8547H13.8C14.4627 13.8547 15 13.3174 15 12.6547C15 11.9919 14.4627 11.4547 13.8 11.4547H10.2ZM6.6 16.2547C5.93726 16.2547 5.4 16.7919 5.4 17.4547C5.4 18.1174 5.93726 18.6547 6.6 18.6547H6.612C7.27474 18.6547 7.812 18.1174 7.812 17.4547C7.812 16.7919 7.27474 16.2547 6.612 16.2547H6.6ZM10.2 16.2547C9.53726 16.2547 9 16.7919 9 17.4547C9 18.1174 9.53726 18.6547 10.2 18.6547H13.8C14.4627 18.6547 15 18.1174 15 17.4547C15 16.7919 14.4627 16.2547 13.8 16.2547H10.2Z" fill="white"/>
</svg>
