<svg width="24" height="24" viewBox="0 0 24 24" fill="none" xmlns="http://www.w3.org/2000/svg">
<g clip-path="url(#clip0_7_43020)">
<mask id="mask0_7_43020" style="mask-type:luminance" maskUnits="userSpaceOnUse" x="0" y="0" width="24" height="24">
<path d="M24 24V0L0 0V24H24Z" fill="white"/>
</mask>
<g mask="url(#mask0_7_43020)">
<g clip-path="url(#clip1_7_43020)">
<path d="M12.9998 1.28599C12.9998 1.39525 12.9998 1.47864 12.9998 1.56203C12.9998 3.60647 12.9998 5.65092 12.9998 7.69536C12.9998 8.25033 13.1826 8.43723 13.7255 8.43723C15.7251 8.43723 17.7247 8.43723 19.7244 8.43723H19.9944V8.67877C19.9944 12.713 19.9888 16.7444 20 20.7787C20 21.3739 19.6344 21.7247 19.0775 21.7218C14.3583 21.7103 9.64178 21.7103 4.9225 21.7218C4.36563 21.7218 3.9972 21.371 4.00002 20.7787C4.00845 14.5964 4.00845 8.41135 4.00002 2.22913C4.00002 1.64542 4.34595 1.27448 4.93656 1.27736C7.53807 1.29461 10.1396 1.28599 12.7439 1.28599C12.8198 1.28599 12.893 1.28599 12.9998 1.28599ZM12.9942 16.0169C12.9942 15.8789 12.9942 15.8013 12.9942 15.7236C12.9942 14.5964 12.9942 13.4693 12.9942 12.3421C12.9942 11.9136 12.7552 11.6002 12.3755 11.5197C12.2827 11.4996 12.1842 11.5111 12.0886 11.5025C11.3152 11.4334 10.9693 11.8044 10.9946 12.6009C11.0283 13.6504 11.003 14.7 11.003 15.7524V16.0198C10.9046 15.9307 10.8483 15.8818 10.7921 15.83C10.5024 15.5626 10.2155 15.2923 9.92021 15.0306C9.57709 14.7258 9.12992 14.7488 8.81492 15.0824C8.72492 15.1773 8.64055 15.2808 8.55336 15.3786C8.21587 15.7696 8.24118 16.2297 8.62086 16.5834C9.55741 17.446 10.4911 18.3086 11.4305 19.1684C11.7905 19.4991 12.1955 19.502 12.5555 19.177C12.7917 18.9643 13.0223 18.7457 13.2558 18.5301C13.9617 17.8773 14.6704 17.2275 15.3735 16.5719C15.7532 16.2182 15.7729 15.7581 15.4326 15.3642C15.351 15.2693 15.2695 15.1744 15.1851 15.0824C14.8645 14.7402 14.4145 14.7172 14.0658 15.0306C13.7733 15.2952 13.4864 15.5655 13.1939 15.83C13.1405 15.8789 13.0842 15.9278 12.9914 16.0112L12.9942 16.0169Z" fill="white"/>
<path d="M15 1.9707C16.44 3.43431 17.8856 4.90366 19.3424 6.38164C19.2777 6.38452 19.213 6.39314 19.1484 6.39314C17.9924 6.39314 16.8365 6.39314 15.6806 6.39314C15.1941 6.39314 15.0028 6.19186 15.0028 5.68866C15.0028 4.50685 15.0028 3.32504 15.0028 2.14323C15.0028 2.07709 15.0028 2.00808 15.0028 1.97358L15 1.9707Z" fill="white"/>
</g>
</g>
</g>
<defs>
<clipPath id="clip0_7_43020">
<rect width="24" height="24" fill="white"/>
</clipPath>
<clipPath id="clip1_7_43020">
<rect width="16" height="20.4444" fill="white" transform="translate(4 1.27734)"/>
</clipPath>
</defs>
</svg>
