<svg width="30" height="30" viewBox="0 0 30 30" fill="none" xmlns="http://www.w3.org/2000/svg">
<rect x="0.5" y="0.5" width="29" height="29" rx="14.5" stroke="black" stroke-opacity="0.21"/>
<path d="M17.1089 16.4218C17.365 16.2169 17.7386 16.2584 17.9435 16.5145C18.1483 16.7706 18.1068 17.1442 17.8508 17.3491L15.8764 18.9286C15.7745 19.0119 15.6444 19.062 15.5026 19.0625L15.5007 19.0625L15.4957 19.0625C15.3563 19.0613 15.2284 19.0122 15.1276 18.9307L13.1506 17.3491C12.8945 17.1442 12.853 16.7706 13.0579 16.5145C13.2627 16.2584 13.6364 16.2169 13.8924 16.4218L14.9069 17.2334V14.5104C14.9069 14.1825 15.1728 13.9167 15.5007 13.9167C15.8286 13.9167 16.0944 14.1825 16.0944 14.5104V17.2334L17.1089 16.4218Z" fill="black"/>
<path fill-rule="evenodd" clip-rule="evenodd" d="M11.5423 7.78125C10.3399 7.78125 9.36523 8.75596 9.36523 9.95833V21.0417C9.36523 22.244 10.3399 23.2188 11.5423 23.2188H19.459C20.6614 23.2188 21.6361 22.244 21.6361 21.0417V12.49C21.6361 12.2002 21.5452 11.9176 21.3761 11.6821L18.9907 8.35881C18.7305 7.99625 18.3115 7.78125 17.8652 7.78125H11.5423ZM10.5527 9.95833C10.5527 9.4118 10.9958 8.96875 11.5423 8.96875H17.2819V12.4497C17.2819 12.7777 17.5477 13.0435 17.8757 13.0435H20.4486V21.0417C20.4486 21.5882 20.0055 22.0312 19.459 22.0312H11.5423C10.9958 22.0312 10.5527 21.5882 10.5527 21.0417V9.95833Z" fill="black"/>
<path d="M29 6.5C29 8.98528 26.9853 11 24.5 11C22.0147 11 20 8.98528 20 6.5C20 4.01472 22.0147 2 24.5 2C26.9853 2 29 4.01472 29 6.5Z" fill="white" stroke="#4283B6"/>
<path d="M26.1875 6.5C26.1875 8.98528 25.432 11 24.5 11C23.568 11 22.8125 8.98528 22.8125 6.5C22.8125 4.01472 23.568 2 24.5 2C25.432 2 26.1875 4.01472 26.1875 6.5Z" fill="white" stroke="#4283B6"/>
<path d="M20 6.5H29" stroke="#4283B6" stroke-linecap="round"/>
</svg>
