<svg width="31" height="30" viewBox="0 0 31 30" fill="none" xmlns="http://www.w3.org/2000/svg">
<rect x="0.5" y="0.5" width="29" height="29" rx="14.5" stroke="black" stroke-opacity="0.21"/>
<path fill-rule="evenodd" clip-rule="evenodd" d="M24.9607 3.09163C26.1664 2.96946 27.3838 2.96946 28.5895 3.09163L29.8229 3.21661C29.9996 3.23452 30.1573 3.32359 30.2507 3.45827C30.3442 3.59295 30.363 3.75835 30.3019 3.907L28.599 8.04831H30.4201C30.6103 8.04831 30.7885 8.13137 30.8968 8.27059C31.0051 8.4098 31.0299 8.58746 30.963 8.74601L30.8157 9.09515C29.7942 11.5173 28.3499 13.7809 26.5361 15.8025L26.2341 16.1392C26.0803 16.3106 25.8217 16.3768 25.5892 16.3043C25.3567 16.2318 25.2011 16.0364 25.2011 15.8171V10.8939H23.7928C23.4924 10.8939 23.2417 10.6897 23.2151 10.4233L23.1203 9.47221C22.9599 7.86297 22.9599 6.24425 23.1203 4.63501L23.2151 3.68391C23.2395 3.43965 23.4535 3.24435 23.7272 3.21661L24.9607 3.09163ZM28.4583 4.11748C27.3397 4.00414 26.2104 4.00414 25.0918 4.11748L24.3285 4.19482L24.2756 4.72628C24.1212 6.27479 24.1212 7.83243 24.2756 9.38094L24.3235 9.86144H25.781C26.1012 9.86144 26.3609 10.0926 26.3609 10.3777V14.3044C27.6769 12.6921 28.7586 10.937 29.5794 9.08079H27.7692C27.5798 9.08079 27.4023 8.99846 27.2938 8.86026C27.1853 8.72206 27.1595 8.54541 27.2246 8.38709L28.9594 4.16826L28.4583 4.11748Z" fill="#FFD91D"/>
<path d="M25.0918 4.11748C26.2104 4.00414 27.3397 4.00414 28.4583 4.11748L28.9594 4.16826L27.2246 8.38709C27.1595 8.54541 27.1853 8.72206 27.2938 8.86026C27.4023 8.99846 27.5798 9.08079 27.7692 9.08079H29.5794C28.7586 10.937 27.6769 12.6921 26.3609 14.3044V10.3777C26.3609 10.0926 26.1012 9.86144 25.781 9.86144H24.3235L24.2756 9.38094C24.1212 7.83243 24.1212 6.27479 24.2756 4.72628L24.3285 4.19482L25.0918 4.11748Z" fill="#FFD91D"/>
<path d="M17.1089 16.4218C17.365 16.2169 17.7386 16.2584 17.9435 16.5145C18.1483 16.7706 18.1068 17.1442 17.8508 17.3491L15.8764 18.9286C15.7745 19.0119 15.6444 19.062 15.5026 19.0625L15.5007 19.0625L15.4957 19.0625C15.3563 19.0613 15.2284 19.0122 15.1276 18.9307L13.1506 17.3491C12.8945 17.1442 12.853 16.7706 13.0579 16.5145C13.2627 16.2584 13.6364 16.2169 13.8924 16.4218L14.9069 17.2334V14.5104C14.9069 14.1825 15.1728 13.9167 15.5007 13.9167C15.8286 13.9167 16.0944 14.1825 16.0944 14.5104V17.2334L17.1089 16.4218Z" fill="black"/>
<path fill-rule="evenodd" clip-rule="evenodd" d="M11.5423 7.78125C10.3399 7.78125 9.36523 8.75596 9.36523 9.95833V21.0417C9.36523 22.244 10.3399 23.2188 11.5423 23.2188H19.459C20.6614 23.2188 21.6361 22.244 21.6361 21.0417V12.49C21.6361 12.2002 21.5452 11.9176 21.3761 11.6821L18.9907 8.35881C18.7305 7.99625 18.3115 7.78125 17.8652 7.78125H11.5423ZM10.5527 9.95833C10.5527 9.4118 10.9958 8.96875 11.5423 8.96875H17.2819V12.4497C17.2819 12.7777 17.5477 13.0435 17.8757 13.0435H20.4486V21.0417C20.4486 21.5882 20.0055 22.0312 19.459 22.0312H11.5423C10.9958 22.0312 10.5527 21.5882 10.5527 21.0417V9.95833Z" fill="black"/>
</svg>
